<?xml version="1.0" encoding="UTF-8" standalone="no"?>
<!-- Created with Inkscape (http://www.inkscape.org/) -->

<svg
   width="100mm"
   height="100mm"
   viewBox="0 0 100 100"
   version="1.1"
   id="svg546"
   xml:space="preserve"
   sodipodi:docname="bikewheel.svg"
   inkscape:version="1.2.2 (b0a8486541, 2022-12-01)"
   xmlns:inkscape="http://www.inkscape.org/namespaces/inkscape"
   xmlns:sodipodi="http://sodipodi.sourceforge.net/DTD/sodipodi-0.dtd"
   xmlns="http://www.w3.org/2000/svg"
   xmlns:svg="http://www.w3.org/2000/svg"><sodipodi:namedview
     id="namedview548"
     pagecolor="#ffffff"
     bordercolor="#666666"
     borderopacity="1.0"
     inkscape:showpageshadow="2"
     inkscape:pageopacity="0.0"
     inkscape:pagecheckerboard="0"
     inkscape:deskcolor="#d1d1d1"
     inkscape:document-units="mm"
     showgrid="false"
     inkscape:zoom="2.905125"
     inkscape:cx="193.10701"
     inkscape:cy="205.84312"
     inkscape:window-width="1759"
     inkscape:window-height="1349"
     inkscape:window-x="269"
     inkscape:window-y="0"
     inkscape:window-maximized="0"
     inkscape:current-layer="layer1" /><defs
     id="defs543"><inkscape:path-effect
       effect="copy_rotate"
       starting_point="0,0"
       origin="50,50"
       id="path-effect27541"
       is_visible="true"
       lpeversion="1.2"
       lpesatellites=""
       method="normal"
       num_copies="70"
       starting_angle="0"
       rotation_angle="6"
       gap="-0.01"
       copies_to_360="true"
       mirror_copies="false"
       split_items="false"
       link_styles="false" /><inkscape:path-effect
       effect="copy_rotate"
       starting_point="0,0"
       origin="50,50"
       id="path-effect27538"
       is_visible="true"
       lpeversion="1.2"
       lpesatellites=""
       method="normal"
       num_copies="60"
       starting_angle="0"
       rotation_angle="6"
       gap="-0.01"
       copies_to_360="true"
       mirror_copies="false"
       split_items="false"
       link_styles="false" /><inkscape:path-effect
       effect="copy_rotate"
       starting_point="0,0"
       origin="50,50"
       id="path-effect25383"
       is_visible="true"
       lpeversion="1.2"
       lpesatellites=""
       method="normal"
       num_copies="6"
       starting_angle="0"
       rotation_angle="60"
       gap="-0.01"
       copies_to_360="true"
       mirror_copies="false"
       split_items="false"
       link_styles="false" /><inkscape:path-effect
       effect="copy_rotate"
       starting_point="0,0"
       origin="50,50"
       id="path-effect22723"
       is_visible="true"
       lpeversion="1.2"
       lpesatellites=""
       method="normal"
       num_copies="14"
       starting_angle="0"
       rotation_angle="25.714286"
       gap="-0.01"
       copies_to_360="true"
       mirror_copies="false"
       split_items="false"
       link_styles="false" /><inkscape:path-effect
       effect="bspline"
       id="path-effect14740"
       is_visible="true"
       lpeversion="1"
       weight="33.333333"
       steps="2"
       helper_size="0"
       apply_no_weight="true"
       apply_with_weight="true"
       only_selected="false" /><inkscape:path-effect
       effect="bspline"
       id="path-effect14736"
       is_visible="true"
       lpeversion="1"
       weight="33.333333"
       steps="2"
       helper_size="0"
       apply_no_weight="true"
       apply_with_weight="true"
       only_selected="false" /><inkscape:path-effect
       effect="copy_rotate"
       starting_point="0,0"
       origin="50,50"
       id="path-effect2176"
       is_visible="true"
       lpeversion="1.2"
       lpesatellites=""
       method="normal"
       num_copies="28"
       starting_angle="0"
       rotation_angle="12.857143"
       gap="0"
       copies_to_360="true"
       mirror_copies="false"
       split_items="false"
       link_styles="false" /><inkscape:path-effect
       effect="bspline"
       id="path-effect894"
       is_visible="true"
       lpeversion="1"
       weight="33.333333"
       steps="2"
       helper_size="0"
       apply_no_weight="true"
       apply_with_weight="true"
       only_selected="false" /></defs><g
     inkscape:label="Lager 1"
     inkscape:groupmode="layer"
     id="layer1"><path
       id="path719"
       style="fill:#333333;stroke:#000000;stroke-width:0.200001;stroke-dasharray:none"
       d="M 49.629529 0.068212891 A 49.900073 49.900319 0 0 0 46.132068 0.20928955 L 46.180644 0.45423584 L 45.376558 0.53691813 L 45.172953 0.31781006 A 49.900073 49.900319 0 0 0 41.694096 0.77618001 L 41.758691 0.99632161 L 40.965458 1.1503174 L 40.748417 0.95498047 A 49.900073 49.900319 0 0 0 37.322786 1.7270264 L 37.403402 1.931665 L 36.627222 2.1564575 L 36.388477 1.9776571 A 49.900073 49.900319 0 0 0 33.049662 3.0556274 L 33.149398 3.2545817 L 32.396472 3.5475871 L 32.124137 3.3796387 A 49.900073 49.900319 0 0 0 28.907279 4.7526815 L 29.031303 4.9526693 L 28.307316 5.3123372 L 28.021029 5.1691935 A 49.900073 49.900319 0 0 0 24.931812 6.8140544 L 25.081673 7.0135254 L 24.393343 7.4367554 L 24.114807 7.3272013 A 49.900073 49.900319 0 0 0 21.179069 9.2500814 L 21.332548 9.4200968 L 20.685042 9.9032715 L 20.404439 9.8216227 A 49.900073 49.900319 0 0 0 17.653186 12.003918 L 17.814417 12.153263 L 17.212903 12.692249 L 16.920414 12.634371 A 49.900073 49.900319 0 0 0 14.380001 15.054895 L 14.555701 15.190287 L 14.00483 15.781466 L 13.68702 15.747876 A 49.900073 49.900319 0 0 0 11.383285 18.38079 L 11.582239 18.507397 L 11.086145 19.145601 L 10.766268 19.140434 A 49.900073 49.900319 0 0 0 8.69611 21.963 L 8.9178019 22.077722 L 8.4811361 22.757784 L 8.1829631 22.780005 A 49.900073 49.900319 0 0 0 6.3722209 25.786023 L 6.584611 25.872839 L 6.2104736 26.589075 L 5.9226359 26.636617 A 49.900073 49.900319 0 0 0 4.3904297 29.796631 L 4.6007528 29.861226 L 4.2922445 30.608468 L 4.0033732 30.683398 A 49.900073 49.900319 0 0 0 2.7652059 33.965885 L 2.9822469 34.011877 L 2.7419515 34.783407 L 2.4417114 34.890894 A 49.900073 49.900319 0 0 0 1.5089518 38.262781 L 1.7425293 38.290686 L 1.5725138 39.080819 L 1.282609 39.215177 A 49.900073 49.900319 0 0 0 0.64182129 42.656311 L 0.89090169 42.663546 L 0.79271647 43.465564 L 0.53381755 43.614909 A 49.900073 49.900319 0 0 0 0.20670573 47.108752 L 0.43511556 47.0948 L 0.40927734 47.902502 L 0.17053223 48.070451 A 49.900073 49.900319 0 0 0 0.10025228 49.954574 A 49.900073 49.900319 0 0 0 0.16123047 51.582381 L 0.37827148 51.549308 L 0.42478027 52.355977 L 0.19740397 52.54873 A 49.900073 49.900319 0 0 0 0.50539551 56.044124 L 0.72140299 55.990898 L 0.83974202 56.790332 L 0.61546631 57.018225 A 49.900073 49.900319 0 0 0 1.2381673 60.460392 L 1.4608927 60.383911 L 1.6500285 61.169393 L 1.4469401 61.416406 A 49.900073 49.900319 0 0 0 2.3631632 64.794495 L 2.5910563 64.692692 L 2.8499552 65.45802 L 2.6814901 65.705033 A 49.900073 49.900319 0 0 0 3.9031209 68.995272 L 4.1031087 68.883134 L 4.4297038 69.622107 L 4.2875936 69.877389 A 49.900073 49.900319 0 0 0 5.8027466 73.045671 L 5.9846476 72.92113 L 6.376355 73.628064 L 6.2549154 73.900916 A 49.900073 49.900319 0 0 0 8.0486043 76.915719 L 8.2201701 76.774125 L 8.6738892 77.443335 L 8.5705363 77.746159 A 49.900073 49.900319 0 0 0 10.625191 80.577511 L 10.792623 80.411629 L 11.30422 81.036914 L 11.228255 81.348006 A 49.900073 49.900319 0 0 0 13.519588 83.994356 L 13.680819 83.803153 L 14.246159 84.380379 L 14.201717 84.676485 A 49.900073 49.900319 0 0 0 16.729211 87.110445 L 16.860986 86.92286 L 17.476453 87.446859 L 17.458883 87.738314 A 49.900073 49.900319 0 0 0 20.19825 89.935596 L 20.308321 89.744393 L 20.967712 90.211031 L 20.977014 90.510238 A 49.900073 49.900319 0 0 0 23.901383 92.447587 L 23.994401 92.246049 L 24.693583 92.651709 L 24.731824 92.969519 A 49.900073 49.900319 0 0 0 27.811222 94.628849 L 27.890287 94.406641 L 28.622542 94.748222 L 28.689205 95.061381 A 49.900073 49.900319 0 0 0 31.901412 96.451477 L 31.96394 96.209631 L 32.724101 96.484033 L 32.812467 96.770321 A 49.900073 49.900319 0 0 0 36.145597 97.866895 L 36.182804 97.640035 L 36.964152 97.84519 L 37.075256 98.115975 A 49.900073 49.900319 0 0 0 40.496753 98.906624 L 40.512773 98.687 L 41.309623 98.821358 L 41.447599 99.086975 A 49.900073 49.900319 0 0 0 44.922839 99.563432 L 44.919222 99.341223 L 45.725374 99.403235 L 45.897974 99.673503 A 49.900073 49.900319 0 0 0 49.391817 99.832149 L 49.367013 99.597538 L 50.174715 99.58772 L 50.370569 99.840934 A 49.900073 49.900319 0 0 0 53.86803 99.699858 L 53.819454 99.454395 L 54.623539 99.372229 L 54.827144 99.591854 A 49.900073 49.900319 0 0 0 58.306002 99.133484 L 58.241406 98.912826 L 59.034639 98.75883 L 59.251681 98.954167 A 49.900073 49.900319 0 0 0 62.677311 98.182121 L 62.596696 97.976965 L 63.372876 97.752173 L 63.612138 97.93149 A 49.900073 49.900319 0 0 0 66.950435 96.85352 L 66.8507 96.654565 L 67.603625 96.361043 L 67.87596 96.529508 A 49.900073 49.900319 0 0 0 71.093335 95.156466 L 70.968795 94.955961 L 71.692782 94.596293 L 71.979069 94.739437 A 49.900073 49.900319 0 0 0 75.068803 93.095093 L 74.918424 92.895105 L 75.606755 92.472392 L 75.885291 92.581429 A 49.900073 49.900319 0 0 0 78.821029 90.659066 L 78.66755 90.488534 L 79.315055 90.005876 L 79.595142 90.087524 A 49.900073 49.900319 0 0 0 82.346912 87.905745 L 82.185164 87.755884 L 82.787195 87.216382 L 83.080717 87.274259 A 49.900073 49.900319 0 0 0 85.620614 84.854252 L 85.444397 84.718343 L 85.995268 84.127681 L 86.314111 84.160754 A 49.900073 49.900319 0 0 0 88.616296 81.52784 L 88.417859 81.401233 L 88.913953 80.763546 L 89.23383 80.768197 A 49.900073 49.900319 0 0 0 91.303988 77.94563 L 91.082296 77.830908 L 91.518962 77.151363 L 91.817135 77.129142 A 49.900073 49.900319 0 0 0 93.627877 74.123124 L 93.415487 74.036308 L 93.789624 73.320072 L 94.077462 73.272013 A 49.900073 49.900319 0 0 0 95.610185 70.112 L 95.399345 70.047404 L 95.707853 69.30068 L 95.996724 69.225749 A 49.900073 49.900319 0 0 0 97.234892 65.942745 L 97.017851 65.89727 L 97.258146 65.125741 L 97.558903 65.017737 A 49.900073 49.900319 0 0 0 98.491146 61.64585 L 98.257568 61.618461 L 98.427584 60.828328 L 98.718005 60.69397 A 49.900073 49.900319 0 0 0 99.358276 57.252836 L 99.108679 57.245601 L 99.207381 56.443583 L 99.46628 56.294238 A 49.900073 49.900319 0 0 0 99.793392 52.800395 L 99.564982 52.814347 L 99.59082 52.006645 L 99.829565 51.838696 A 49.900073 49.900319 0 0 0 99.899845 49.954574 A 49.900073 49.900319 0 0 0 99.838867 48.326766 L 99.621826 48.359839 L 99.575317 47.55317 L 99.802694 47.360417 A 49.900073 49.900319 0 0 0 99.494702 43.865023 L 99.278695 43.91825 L 99.160356 43.118815 L 99.384631 42.890922 A 49.900073 49.900319 0 0 0 98.76193 39.448755 L 98.539205 39.525236 L 98.350069 38.739754 L 98.552641 38.492741 A 49.900073 49.900319 0 0 0 97.636418 35.114136 L 97.409041 35.215938 L 97.149626 34.45061 L 97.318091 34.203597 A 49.900073 49.900319 0 0 0 96.096977 30.913875 L 95.896989 31.025496 L 95.570394 30.286523 L 95.712504 30.031759 A 49.900073 49.900319 0 0 0 94.197351 26.863477 L 94.01545 26.9875 L 93.623743 26.281083 L 93.745182 26.008232 A 49.900073 49.900319 0 0 0 91.950977 22.993429 L 91.779928 23.134505 L 91.326208 22.465812 L 91.429561 22.163505 A 49.900073 49.900319 0 0 0 89.374906 19.332153 L 89.207475 19.497518 L 88.695878 18.872233 L 88.771842 18.561658 A 49.900073 49.900319 0 0 0 86.479993 15.914791 L 86.319279 16.105477 L 85.753939 15.528251 L 85.798381 15.233179 A 49.900073 49.900319 0 0 0 83.270886 12.798702 L 83.139111 12.986287 L 82.523645 12.462288 L 82.541215 12.170833 A 49.900073 49.900319 0 0 0 79.801331 9.9735514 L 79.691777 10.164237 L 79.032385 9.6975993 L 79.023083 9.3994263 A 49.900073 49.900319 0 0 0 76.098714 7.4615601 L 76.005697 7.6630981 L 75.306514 7.2574382 L 75.268274 6.9396281 A 49.900073 49.900319 0 0 0 72.188875 5.2802979 L 72.10981 5.5019897 L 71.377555 5.1609253 L 71.310893 4.8477661 A 49.900073 49.900319 0 0 0 68.098686 3.4576701 L 68.036157 3.6995158 L 67.275997 3.4245972 L 67.18763 3.1388265 A 49.900073 49.900319 0 0 0 63.8545 2.0422526 L 63.817293 2.2685954 L 63.035946 2.0634399 L 62.924841 1.7931722 A 49.900073 49.900319 0 0 0 59.503345 1.0025228 L 59.487325 1.2221476 L 58.690474 1.0877889 L 58.553015 0.8226888 A 49.900073 49.900319 0 0 0 55.076742 0.34571533 L 55.080359 0.56792399 L 54.274723 0.50539551 L 54.102641 0.2361613 A 49.900073 49.900319 0 0 0 50.60828 0.076997884 L 50.633085 0.31109212 L 49.825382 0.32142741 L 49.629529 0.068212891 z M 50.000049 5.4746012 A 44.48002 44.480239 0 0 1 94.480021 49.954574 A 44.48002 44.480239 0 0 1 50.000049 94.435063 A 44.48002 44.480239 0 0 1 5.5200765 49.954574 A 44.48002 44.480239 0 0 1 50.000049 5.4746012 z " /><ellipse
       style="fill:none;stroke:#000000;stroke-width:0.1;stroke-linecap:round;stroke-dasharray:none"
       id="path2438"
       cy="50.000198"
       cx="49.999954"
       rx="5.0647283"
       ry="5.0647531" /><path
       style="fill:#808080;stroke:#999999;stroke-width:0.3;stroke-linecap:round;stroke-dasharray:none"
       d="M 49.999924,7.8303037 45.062209,48.87318"
       id="path6269"
       sodipodi:nodetypes="cc" /><path
       style="fill:#808080;stroke:#999999;stroke-width:0.3;stroke-linecap:round;stroke-dasharray:none"
       d="M 46.04019,46.842376 59.383597,8.8875856"
       id="path8503"
       sodipodi:nodetypes="cc" /><path
       style="fill:#808080;stroke:#999999;stroke-width:0.3;stroke-linecap:round;stroke-dasharray:none"
       d="M 45.43679,47.802681 17.030642,76.29247"
       id="path14676"
       sodipodi:nodetypes="cc" /><path
       style="fill:#cccccc;fill-opacity:0.75;fill-rule:evenodd;stroke:#999999;stroke-width:0.264584px;stroke-linecap:round;stroke-linejoin:miter;stroke-opacity:1"
       d="m 48.87294,45.06243 c 0,0 -39.985376,-4.445923 -39.985376,-4.445923"
       id="path14738"
       inkscape:path-effect="#path-effect14740"
       inkscape:original-d="M 48.87294,45.06243 8.887564,40.616507" /><path
       style="fill:#cccccc;stroke:#999999;stroke-width:0.3;stroke-linecap:round;stroke-dasharray:none"
       d="M 47.802446,45.437014 82.969571,23.707663"
       id="path14796" /><path
       style="fill:#cccccc;stroke:#999999;stroke-width:0.3;stroke-linecap:round;stroke-dasharray:none"
       d="M 49.999949,44.935445 87.993575,31.703326"
       id="path14798" /><path
       style="fill:#cccccc;stroke:#999999;stroke-width:0.3;stroke-linecap:round;stroke-dasharray:none"
       d="m 7.8302654,50.000262 39.9721786,4.56312"
       id="path14854" /><path
       style="fill:#cccccc;stroke:#999999;stroke-width:0.3;stroke-linecap:round;stroke-dasharray:none"
       d="M 8.8875423,59.383889 49.999998,55.115709"
       id="path14856" /><path
       style="fill:#cccccc;stroke:#999999;stroke-width:0.3;stroke-linecap:round;stroke-dasharray:none"
       d="M 48.87294,54.937965 82.969622,76.292766"
       id="path14858"
       sodipodi:nodetypes="cc" /><path
       style="fill:#cccccc;stroke:#999999;stroke-width:0.3;stroke-linecap:round;stroke-dasharray:none"
       d="M 68.296707,12.006424 55.064681,50.000198"
       id="path14862" /><path
       style="fill:#cccccc;stroke:#999999;stroke-width:0.3;stroke-linecap:round;stroke-dasharray:none"
       d="m 52.197453,45.437012 38.915,13.946896"
       id="path14866" /><path
       style="fill:#cccccc;stroke:#999999;stroke-width:0.3;stroke-linecap:round;stroke-dasharray:none"
       d="m 53.959714,46.842373 34.033902,21.45471"
       id="path14868" /><path
       style="fill:#cccccc;stroke:#999999;stroke-width:0.3;stroke-linecap:round;stroke-dasharray:none"
       d="M 53.157756,46.040411 31.703208,12.006464"
       id="path14870" /><path
       style="fill:#cccccc;stroke:#999999;stroke-width:0.3;stroke-linecap:round;stroke-dasharray:none"
       d="M 23.707598,17.030473 45.062206,51.127207"
       id="path14874" /><path
       style="fill:#cccccc;stroke:#999999;stroke-width:0.3;stroke-linecap:round;stroke-dasharray:none"
       d="M 17.03039,23.707713 46.040185,53.158017"
       id="path14876" /><path
       style="fill:#cccccc;stroke:#999999;stroke-width:0.3;stroke-linecap:round;stroke-dasharray:none"
       d="m 45.436788,52.19771 4.563161,39.972476"
       id="path14880" /><path
       style="fill:#cccccc;stroke:#999999;stroke-width:0.3;stroke-linecap:round;stroke-dasharray:none"
       d="M 53.157759,53.959981 91.112432,40.616485"
       id="path14884" /><path
       style="fill:#cccccc;stroke:#999999;stroke-width:0.3;stroke-linecap:round;stroke-dasharray:none"
       d="M 53.959716,53.15802 31.70317,87.994008"
       id="path14886" /><path
       style="fill:#cccccc;stroke:#999999;stroke-width:0.3;stroke-linecap:round;stroke-dasharray:none"
       d="M 52.197455,54.563384 23.761057,82.958539"
       id="path14888" /><path
       style="fill:#cccccc;stroke:#999999;stroke-width:0.3;stroke-linecap:round;stroke-dasharray:none"
       d="m 54.937698,51.12721 4.445921,39.985692"
       id="path14890" /><path
       style="fill:#cccccc;stroke:#999999;stroke-width:0.3;stroke-linecap:round;stroke-dasharray:none"
       d="m 54.937695,48.87318 13.35905,39.120869"
       id="path14892" /><path
       id="path15694"
       style="fill:#cccccc;stroke:#1a1a1a;stroke-width:0.200001;stroke-linecap:round;stroke-dasharray:none"
       d="m 49.999999,43.811173 a 6.1888183,6.1888488 0 0 0 -6.189042,6.189072 6.1888183,6.1888488 0 0 0 6.189042,6.188548 6.1888183,6.1888488 0 0 0 6.188517,-6.188548 6.1888183,6.1888488 0 0 0 -6.188517,-6.189072 z m 0.792122,2.234214 c 0.03325,-0.0018 0.06925,7.29e-4 0.108064,0.0068 3.58e-4,5.6e-5 6.9e-4,-5.8e-5 10e-4,0 a 4.0497587,4.0497786 0 0 1 2.06791,1.193958 c 0.308662,0.385684 -0.343034,0.844767 -0.645763,0.727077 a 3.0832639,3.0832791 0 0 0 -1.685489,-0.98937 c -0.244458,-0.183426 -0.305304,-0.91392 0.154228,-0.938485 z m -1.644571,0.0021 c 0.447077,-0.01712 0.503894,0.738113 0.254948,0.930092 a 3.0832639,3.0832791 0 0 0 -1.693882,0.961042 c -0.298719,0.1302 -1.036264,-0.234299 -0.683008,-0.68511 a 4.0497587,4.0497786 0 0 1 2.102008,-1.203926 c 0.0066,-5.7e-4 0.0135,-0.0018 0.01994,-0.0021 z m 4.386046,2.50595 c 0.136658,-0.0019 0.262653,0.0663 0.33416,0.247605 a 4.0497587,4.0497786 0 0 1 0.182031,1.199204 4.0497587,4.0497786 0 0 1 -0.181506,1.197107 c -0.182672,0.457866 -0.909031,0.118243 -0.951596,-0.20354 a 3.0832639,3.0832791 0 0 0 0.166294,-0.993567 3.0832639,3.0832791 0 0 0 -0.15213,-0.956321 c 0.02625,-0.214749 0.335226,-0.48666 0.602747,-0.490488 z m -7.077686,0.02676 c 0.271416,-0.0077 0.598765,0.213097 0.627402,0.425963 a 3.0832639,3.0832791 0 0 0 -0.166818,0.994093 3.0832639,3.0832791 0 0 0 0.152655,0.953174 c -0.03499,0.319309 -0.701553,0.767888 -0.925367,0.270686 a 4.0497587,4.0497786 0 0 1 -0.193571,-1.22386 4.0497587,4.0497786 0 0 1 0.191998,-1.220189 c 0.06452,-0.137891 0.182192,-0.196115 0.313701,-0.199867 z m 1.107921,3.427648 c 0.0425,-3.92e-4 0.08206,0.0066 0.116983,0.02098 a 3.0832639,3.0832791 0 0 0 1.679192,0.986223 c 0.258962,0.190412 0.314077,0.99269 -0.229243,0.936911 a 4.0497587,4.0497786 0 0 1 -2.10463,-1.20445 c -0.262527,-0.340995 0.216095,-0.736701 0.537698,-0.739667 z m 4.888598,0.02676 c 0.338789,0.0093 0.828283,0.334231 0.516715,0.719733 -1.6e-4,1.98e-4 -3.64e-4,3.26e-4 -5.25e-4,5.24e-4 a 4.0497587,4.0497786 0 0 1 -2.067385,1.193435 c -1.77e-4,2.7e-5 -3.47e-4,-2.8e-5 -5.25e-4,0 -0.490937,0.0751 -0.560988,-0.72689 -0.303209,-0.925371 a 3.0832639,3.0832791 0 0 0 1.693357,-0.961042 c 0.0455,-0.01996 0.100996,-0.02894 0.161572,-0.02728 z" /><path
       style="fill:#999999;stroke:#1a1a1a;stroke-width:0.0985091;stroke-linecap:round;stroke-dasharray:none"
       id="path21269"
       inkscape:path-effect="#path-effect22723"
       sodipodi:type="arc"
       sodipodi:cx="51.110207"
       sodipodi:cy="45.135864"
       sodipodi:rx="0.24682552"
       sodipodi:ry="0.24682552"
       d="m 51.357032,45.135864 c 0,0.136318 -0.110507,0.246826 -0.246825,0.246826 -0.136318,0 -0.246826,-0.110508 -0.246826,-0.246826 0,-0.136318 0.110508,-0.246825 0.246826,-0.246825 0.136318,0 0.246825,0.110507 0.246825,0.246825 z m -2.244858,-0.107093 c 0.05915,0.122818 0.0075,0.270329 -0.115288,0.329476 -0.122818,0.05915 -0.27033,0.0075 -0.329476,-0.115289 -0.05915,-0.122818 -0.0075,-0.270329 0.115289,-0.329476 0.122818,-0.05915 0.270329,-0.0075 0.329475,0.115289 z m -2.069013,0.87752 c 0.106578,0.08499 0.124076,0.240291 0.03908,0.346869 -0.08499,0.106577 -0.240291,0.124075 -0.346869,0.03908 -0.106578,-0.08499 -0.124076,-0.240291 -0.03908,-0.346869 0.08499,-0.106577 0.240292,-0.124075 0.346869,-0.03908 z m -1.483375,1.688328 c 0.132901,0.03033 0.216047,0.162661 0.185714,0.295561 -0.03033,0.132901 -0.162661,0.216047 -0.295561,0.185714 -0.132901,-0.03033 -0.216047,-0.162661 -0.185714,-0.295561 0.03033,-0.1329 0.162661,-0.216047 0.295561,-0.185714 z m -0.603936,2.164745 c 0.1329,-0.03033 0.265228,0.05281 0.295561,0.185713 0.03033,0.1329 -0.05281,0.265227 -0.185713,0.295561 -0.1329,0.03033 -0.265227,-0.05281 -0.295561,-0.185714 -0.03033,-0.1329 0.05281,-0.265227 0.185713,-0.29556 z m 0.39512,2.212405 c 0.106578,-0.08499 0.261876,-0.0675 0.346869,0.03908 0.08499,0.106578 0.0675,0.261877 -0.03908,0.34687 -0.106577,0.08499 -0.261876,0.06749 -0.346869,-0.03908 -0.08499,-0.106578 -0.0675,-0.261877 0.03908,-0.346869 z m 1.315917,1.821872 c 0.05915,-0.122819 0.206657,-0.174435 0.329476,-0.115289 0.122818,0.05915 0.174434,0.206658 0.115288,0.329476 -0.05915,0.122818 -0.206657,0.174435 -0.329476,0.115288 -0.122818,-0.05915 -0.174434,-0.206657 -0.115288,-0.329475 z m 1.976081,1.070495 c 0,-0.136318 0.110507,-0.246826 0.246825,-0.246826 0.136318,0 0.246826,0.110508 0.246826,0.246826 0,0.136318 -0.110508,0.246825 -0.246826,0.246825 -0.136318,0 -0.246825,-0.110507 -0.246825,-0.246825 z m 2.244858,0.107093 c -0.05915,-0.122818 -0.0075,-0.270329 0.115288,-0.329476 0.122818,-0.05915 0.27033,-0.0075 0.329476,0.115289 0.05915,0.122818 0.0075,0.270329 -0.115289,0.329476 -0.122818,0.05915 -0.270329,0.0075 -0.329475,-0.115289 z m 2.069013,-0.87752 c -0.106578,-0.08499 -0.124076,-0.240291 -0.03908,-0.346869 0.08499,-0.106577 0.240291,-0.124075 0.346869,-0.03908 0.106578,0.08499 0.124076,0.240291 0.03908,0.346869 -0.08499,0.106577 -0.240292,0.124075 -0.346869,0.03908 z m 1.483375,-1.688328 C 54.307313,52.375047 54.224167,52.24272 54.2545,52.10982 c 0.03033,-0.132901 0.162661,-0.216047 0.295561,-0.185714 0.132901,0.03033 0.216047,0.162661 0.185714,0.295561 -0.03033,0.1329 -0.162661,0.216047 -0.295561,0.185714 z m 0.603936,-2.164745 c -0.1329,0.03033 -0.265228,-0.05281 -0.295561,-0.185713 -0.03033,-0.1329 0.05281,-0.265227 0.185713,-0.295561 0.1329,-0.03033 0.265227,0.05281 0.295561,0.185714 0.03033,0.1329 -0.05281,0.265227 -0.185713,0.29556 z m -0.39512,-2.212405 c -0.106578,0.08499 -0.261876,0.0675 -0.346869,-0.03908 -0.08499,-0.106578 -0.0675,-0.261877 0.03908,-0.34687 0.106577,-0.08499 0.261876,-0.06749 0.346869,0.03908 0.08499,0.106578 0.0675,0.261877 -0.03908,0.346869 z m -1.315917,-1.821872 c -0.05915,0.122819 -0.206657,0.174435 -0.329476,0.115289 -0.122818,-0.05915 -0.174434,-0.206658 -0.115288,-0.329476 0.05915,-0.122818 0.206657,-0.174435 0.329476,-0.115288 0.122818,0.05915 0.174434,0.206657 0.115288,0.329475 z"
       class="UnoptimicedTransforms"
       transform="matrix(1.0151319,0,0,1.0151369,-0.75664557,-0.75664976)" /><path
       style="fill:#cccccc;fill-opacity:0.75;fill-rule:evenodd;stroke:#999999;stroke-width:0.264584px;stroke-linecap:round;stroke-linejoin:miter;stroke-opacity:1"
       d="m 51.126958,45.062429 c 0,0 -39.120552,-13.359064 -39.120552,-13.359064"
       id="path14734"
       inkscape:path-effect="#path-effect14736"
       inkscape:original-d="M 51.126958,45.062429 12.006406,31.703365"
       sodipodi:nodetypes="cc" /><path
       style="fill:#cccccc;stroke:#999999;stroke-width:0.3;stroke-linecap:round;stroke-dasharray:none"
       d="M 46.842143,53.959979 76.29239,82.97003"
       id="path14860"
       sodipodi:nodetypes="cc" /><path
       style="fill:#808080;stroke:#999999;stroke-width:0.3;stroke-linecap:round;stroke-dasharray:none"
       d="M 46.842145,46.040416 12.007063,68.296699"
       id="path14678"
       sodipodi:nodetypes="cc" /><path
       style="fill:#cccccc;stroke:#999999;stroke-width:0.3;stroke-linecap:round;stroke-dasharray:none"
       d="M 76.29234,17.030424 54.563116,52.197712"
       id="path14864" /><path
       style="fill:#cccccc;stroke:#999999;stroke-width:0.3;stroke-linecap:round;stroke-dasharray:none"
       d="M 54.563113,47.802679 40.616308,8.8876073"
       id="path14872" /><path
       style="fill:#cccccc;stroke:#999999;stroke-width:0.3;stroke-linecap:round;stroke-dasharray:none"
       d="M 44.911029,49.99998 40.616283,91.112877"
       id="path14878" /><path
       style="fill:#cccccc;stroke:#999999;stroke-width:0.3;stroke-linecap:round;stroke-dasharray:none"
       d="M 51.126959,54.937968 92.169736,50.00023"
       id="path14882" /><path
       id="circle4019"
       style="fill:#cccccc;stroke:#000000;stroke-width:0.200001;stroke-dasharray:none"
       d="M 50.000001,5.3267393 A 44.673071,44.673291 0 0 0 5.3267135,50.000247 44.673071,44.673291 0 0 0 50.000001,94.673224 44.673071,44.673291 0 0 0 94.672758,50.000247 44.673071,44.673291 0 0 0 50.000001,5.3267393 Z m 0,2.5035644 A 42.169761,42.169968 0 0 1 92.169736,50.000247 42.169761,42.169968 0 0 1 50.000001,92.170189 42.169761,42.169968 0 0 1 7.8302656,50.000247 42.169761,42.169968 0 0 1 50.000001,7.8303037 Z" /><ellipse
       style="fill:none;stroke:#1a1a1a;stroke-width:0.200001;stroke-linecap:round;stroke-dasharray:none"
       id="path25386"
       cx="49.99995"
       cy="50.000195"
       rx="2.5397754"
       ry="2.539788" /><ellipse
       style="fill:none;stroke:#1a1a1a;stroke-width:0.200001;stroke-linecap:round;stroke-dasharray:none"
       id="path25803"
       cx="49.99995"
       cy="50.000195"
       rx="1.2978357"
       ry="1.297842" /><ellipse
       style="fill:#1a1a1a;stroke:#1a1a1a;stroke-width:0.200001;stroke-linecap:round;stroke-dasharray:none"
       id="path26531"
       cx="49.99995"
       cy="50.000195"
       rx="0.48504242"
       ry="0.48504484" /><path
       style="fill:none;stroke:#ffffff;stroke-width:0.3;stroke-linecap:round;stroke-dasharray:none"
       id="path27594"
       sodipodi:type="arc"
       sodipodi:cx="48.739059"
       sodipodi:cy="49.675034"
       sodipodi:rx="43.871761"
       sodipodi:ry="43.07539"
       sodipodi:start="0.19701791"
       sodipodi:end="1.2901182"
       sodipodi:arc-type="arc"
       d="M 91.762107,58.10686 A 43.871761,43.07539 0 0 1 60.891858,91.064789"
       sodipodi:open="true" /></g></svg>
