<?xml version="1.0" encoding="UTF-8"?>
<svg width="100mm" height="140mm" version="1.1" viewBox="0 0 100 140" xmlns="http://www.w3.org/2000/svg">
 <path transform="matrix(1.2278,0,0,1.3943,3.9593,1.6883)" d="m37.5 13.758c-11.238 0.039603-21.073 13.488-12.249 28.022-11.51-3.5414-22.888 9.1261-18.525 21.689 4.3627 12.563 19.406 15.053 28.274 2.4514 0.0432 5.195-5.2509 13.917-9.2205 17.717l11.721-0.0825 11.721 0.0825c-3.9696-3.8003-9.2637-12.522-9.2205-17.717 8.868 12.602 23.911 10.112 28.274-2.4514s-7.0147-25.231-18.525-21.689c8.824-14.534-1.0108-27.983-12.249-28.022z" fill="#0000e5" fill-rule="evenodd" stroke="#0000e5" stroke-linecap="round" stroke-linejoin="round" stroke-width="1.5286" style="paint-order:stroke markers fill"/>
 <g fill="#fff" aria-label="2">
  <path d="m59.958 83.818v3.7109h-19.873v-3.2471l9.8633-13.062q2.6367-3.54 3.4912-5.5664 0.87891-2.0508 0.87891-4.126 0-2.6123-1.2695-4.4678-1.2451-1.8555-3.5156-1.8555-2.9785 0-4.3213 2.0264-1.3428 2.0264-1.3428 5.2002h-4.3213q0-4.4922 2.4902-7.7148 2.5146-3.2227 7.4951-3.2227 4.2969 0 6.6895 2.6123 2.417 2.6123 2.417 6.8848 0 3.125-1.5625 6.2744t-3.8574 6.1279l-7.959 10.425z"/>
 </g>
</svg>
