<?xml version="1.0" encoding="UTF-8"?>
<svg width="100mm" height="140mm" version="1.1" viewBox="0 0 100 140" xmlns="http://www.w3.org/2000/svg">
 <path transform="matrix(1.2278,0,0,1.3943,3.9593,1.6883)" d="m37.5 13.758c-11.238 0.039603-21.073 13.488-12.249 28.022-11.51-3.5414-22.888 9.1261-18.525 21.689 4.3627 12.563 19.406 15.053 28.274 2.4514 0.0432 5.195-5.2509 13.917-9.2205 17.717l11.721-0.0825 11.721 0.0825c-3.9696-3.8003-9.2637-12.522-9.2205-17.717 8.868 12.602 23.911 10.112 28.274-2.4514s-7.0147-25.231-18.525-21.689c8.824-14.534-1.0108-27.983-12.249-28.022z" fill-rule="evenodd" stroke="#000" stroke-linecap="round" stroke-linejoin="round" stroke-width="1.5286" style="paint-order:stroke markers fill"/>
 <g fill="#fff" aria-label="J">
  <path d="m53.598 51.982h4.4678v25.269q-0.02441 5.2246-2.71 8.0078-2.6611 2.7588-6.8604 2.7588-4.1504 0-6.8604-2.5391-2.71-2.5391-2.71-7.7881h4.4922q0 3.3691 1.4404 4.9316 1.4648 1.5625 3.6377 1.5625 2.1973 0 3.6377-1.7822 1.4648-1.7822 1.4648-5.249z"/>
 </g>
</svg>
