<?xml version="1.0" encoding="UTF-8"?>
<svg width="100mm" height="140mm" version="1.1" viewBox="0 0 100 140" xmlns="http://www.w3.org/2000/svg">
 <path transform="matrix(1.2278,0,0,1.3943,3.9593,1.6883)" d="m37.5 13.758c-11.238 0.039603-21.073 13.488-12.249 28.022-11.51-3.5414-22.888 9.1261-18.525 21.689 4.3627 12.563 19.406 15.053 28.274 2.4514 0.0432 5.195-5.2509 13.917-9.2205 17.717l11.721-0.0825 11.721 0.0825c-3.9696-3.8003-9.2637-12.522-9.2205-17.717 8.868 12.602 23.911 10.112 28.274-2.4514s-7.0147-25.231-18.525-21.689c8.824-14.534-1.0108-27.983-12.249-28.022z" fill-rule="evenodd" stroke="#000" stroke-linecap="round" stroke-linejoin="round" stroke-width="1.5286" style="paint-order:stroke markers fill"/>
 <g fill="#fff" aria-label="Q">
  <path d="m61.789 90.605-3.0518 2.9297-6.3721-5.835q-1.416 0.31738-3.0029 0.31738-5.249 0-8.5693-3.7109-3.2959-3.7109-3.3936-11.035v-6.5918q0-7.5439 3.2959-11.353 3.2959-3.833 8.6426-3.833 5.4688 0 8.667 3.7598 3.2227 3.7354 3.2959 11.084v6.4941q0 9.2041-4.8096 12.964zm-4.9316-23.975q0-5.8594-1.9531-8.4961-1.9287-2.6367-5.5664-2.6367-3.4424 0-5.4688 2.6367-2.002 2.6367-2.002 8.4961v6.2012q0 5.9082 2.0264 8.5693 2.0508 2.6367 5.4688 2.6367 3.6621 0 5.5664-2.6123 1.9043-2.6123 1.9287-8.4473z"/>
 </g>
</svg>
