<?xml version="1.0" encoding="UTF-8"?>
<svg width="100mm" height="140mm" version="1.1" viewBox="0 0 100 140" xmlns="http://www.w3.org/2000/svg">
 <path transform="matrix(1.2278,0,0,1.3943,3.9593,1.6883)" d="m37.5 13.758c-11.238 0.039603-21.073 13.488-12.249 28.022-11.51-3.5414-22.888 9.1261-18.525 21.689 4.3627 12.563 19.406 15.053 28.274 2.4514 0.0432 5.195-5.2509 13.917-9.2205 17.717l11.721-0.0825 11.721 0.0825c-3.9696-3.8003-9.2637-12.522-9.2205-17.717 8.868 12.602 23.911 10.112 28.274-2.4514s-7.0147-25.231-18.525-21.689c8.824-14.534-1.0108-27.983-12.249-28.022z" fill-rule="evenodd" stroke="#000" stroke-linecap="round" stroke-linejoin="round" stroke-width="1.5286" style="paint-order:stroke markers fill"/>
 <g fill="#fff" aria-label="10">
  <path d="m42.198 58.258v35.742h-4.3213v-30.103l-7.4707 3.3203v-4.0771l11.133-4.8828z"/>
  <path d="m69.833 78.814q0 8.7402-2.5879 12.207-2.5635 3.4668-6.9092 3.4668-4.248 0-6.8604-3.3691-2.6123-3.3936-2.6855-11.792v-5.9326q0-8.7158 2.6123-12.061 2.6367-3.3691 6.9092-3.3691 4.3213 0 6.8848 3.3203 2.5879 3.2959 2.6367 11.768zm-4.2969-6.1768q0-6.0059-1.3672-8.4961-1.3428-2.4902-3.8574-2.4902-2.4414 0-3.8086 2.417-1.3428 2.3926-1.3916 8.1299v7.3486q0 5.957 1.3672 8.5938 1.3916 2.6367 3.8574 2.6367 2.5146 0 3.833-2.5391 1.3184-2.5391 1.3672-8.252z"/>
 </g>
</svg>
