<?xml version="1.0" encoding="UTF-8"?>
<svg width="100mm" height="140mm" version="1.1" viewBox="0 0 100 140" xmlns="http://www.w3.org/2000/svg">
 <path transform="matrix(1.2278,0,0,1.3943,3.9593,1.6883)" d="m37.5 13.758c-11.238 0.039603-21.073 13.488-12.249 28.022-11.51-3.5414-22.888 9.1261-18.525 21.689 4.3627 12.563 19.406 15.053 28.274 2.4514 0.0432 5.195-5.2509 13.917-9.2205 17.717l11.721-0.0825 11.721 0.0825c-3.9696-3.8003-9.2637-12.522-9.2205-17.717 8.868 12.602 23.911 10.112 28.274-2.4514s-7.0147-25.231-18.525-21.689c8.824-14.534-1.0108-27.983-12.249-28.022z" fill="#187800" fill-rule="evenodd" stroke="#187800" stroke-linecap="round" stroke-linejoin="round" stroke-width="1.5286" style="paint-order:stroke markers fill"/>
 <g fill="#fff" aria-label="8">
  <path d="m59.055 77.91q0 4.8828-2.7344 7.4951-2.71 2.6123-6.7627 2.6123-4.0283 0-6.7627-2.6123-2.71-2.6367-2.71-7.4951 0-2.9785 1.3184-5.249 1.3428-2.2949 3.6377-3.4668-4.2969-2.4902-4.2969-7.959 0-4.6631 2.4902-7.2021 2.4902-2.5391 6.3477-2.5391t6.3232 2.5391q2.4902 2.5391 2.4902 7.2021 0 2.6367-1.1963 4.7363-1.1719 2.0752-3.1738 3.2471 2.2949 1.1719 3.6621 3.4668 1.3672 2.2705 1.3672 5.2246zm-4.9805-16.602q0-2.6611-1.2207-4.3701-1.2207-1.7334-3.2715-1.7334-2.0508 0-3.2959 1.6602-1.2207 1.6357-1.2207 4.4434 0 2.7588 1.2207 4.4189t3.2959 1.6602q2.0508 0 3.2715-1.6602t1.2207-4.4189zm0.68359 16.504q0-2.9785-1.4404-4.8584-1.416-1.8799-3.7842-1.8799-2.417 0-3.7842 1.8799-1.3672 1.8799-1.3672 4.8584 0 3.0762 1.3428 4.7852 1.3672 1.709 3.833 1.709 2.4902 0 3.833-1.709 1.3672-1.709 1.3672-4.7852z"/>
 </g>
</svg>
