<?xml version="1.0" encoding="UTF-8"?>
<svg width="100mm" height="140mm" version="1.1" viewBox="0 0 100 140" xmlns="http://www.w3.org/2000/svg">
 <path transform="matrix(1.2278,0,0,1.3943,3.9593,1.6883)" d="m37.5 13.758c-11.238 0.039603-21.073 13.488-12.249 28.022-11.51-3.5414-22.888 9.1261-18.525 21.689 4.3627 12.563 19.406 15.053 28.274 2.4514 0.0432 5.195-5.2509 13.917-9.2205 17.717l11.721-0.0825 11.721 0.0825c-3.9696-3.8003-9.2637-12.522-9.2205-17.717 8.868 12.602 23.911 10.112 28.274-2.4514s-7.0147-25.231-18.525-21.689c8.824-14.534-1.0108-27.983-12.249-28.022z" fill="#187800" fill-rule="evenodd" stroke="#187800" stroke-linecap="round" stroke-linejoin="round" stroke-width="1.5286" style="paint-order:stroke markers fill"/>
 <g fill="#fff" aria-label="A">
  <path d="m36.203 87.529 11.45-35.547h3.8574l11.45 35.547h-4.5898l-2.7832-9.3018h-12.012l-2.7832 9.3018zm8.5449-13.159h9.668l-4.834-16.138z"/>
 </g>
</svg>
