<?xml version="1.0" encoding="UTF-8"?>
<svg width="100mm" height="140mm" version="1.1" viewBox="0 0 100 140" xmlns="http://www.w3.org/2000/svg">
 <path transform="matrix(1.2278,0,0,1.3943,3.9593,1.6883)" d="m37.5 13.758c-11.238 0.039603-21.073 13.488-12.249 28.022-11.51-3.5414-22.888 9.1261-18.525 21.689 4.3627 12.563 19.406 15.053 28.274 2.4514 0.0432 5.195-5.2509 13.917-9.2205 17.717l11.721-0.0825 11.721 0.0825c-3.9696-3.8003-9.2637-12.522-9.2205-17.717 8.868 12.602 23.911 10.112 28.274-2.4514s-7.0147-25.231-18.525-21.689c8.824-14.534-1.0108-27.983-12.249-28.022z" fill="#187800" fill-rule="evenodd" stroke="#187800" stroke-linecap="round" stroke-linejoin="round" stroke-width="1.5286" style="paint-order:stroke markers fill"/>
 <g fill="#fff" aria-label="3">
  <path d="m45.627 71.245v-3.7109h2.7832q2.7832 0 4.126-1.7334 1.3672-1.7334 1.3672-4.3457 0-6.25-4.8096-6.25-2.2705 0-3.6377 1.6602-1.3428 1.6357-1.3428 4.4189h-4.2969q0-4.0771 2.5146-6.9336 2.5146-2.8564 6.7627-2.8564 4.0527 0 6.5918 2.5635 2.5391 2.5391 2.5391 7.4951 0 1.9775-1.0742 4.2236-1.0742 2.2217-3.5156 3.4912 3.0029 1.123 4.0039 3.54 1.001 2.3926 1.001 4.8096 0 4.9805-2.7588 7.6904-2.7344 2.71-6.8115 2.71-3.9795 0-6.7139-2.5635-2.7344-2.5879-2.7344-7.3242h4.3213q0 2.8076 1.3428 4.4922 1.3672 1.6846 3.7842 1.6846 2.3926 0 3.8086-1.6357 1.4404-1.6357 1.4404-4.9561 0-6.4697-6.1279-6.4697z"/>
 </g>
</svg>
