<?xml version="1.0" encoding="UTF-8"?>
<svg width="100mm" height="140mm" version="1.1" viewBox="0 0 100 140" xmlns="http://www.w3.org/2000/svg">
 <path transform="matrix(.97947 0 0 1 1.0263 -1.5875)" d="m50 124.12c-8.0865-17.14-24.996-33.906-33.525-53.083-6.6605-14.976-5.5603-29.498 1.9164-38.342 11.681-11.949 28.273-6.3777 31.609 11.066 3.3361-17.444 19.928-23.015 31.609-11.066 7.4767 8.8435 8.5769 23.365 1.9164 38.342-8.5288 19.177-25.439 35.943-33.525 53.083z" fill="#c00" fill-rule="evenodd" stroke="#c00" stroke-linecap="round" stroke-linejoin="round" stroke-width="2.0208" style="paint-order:stroke markers fill"/>
 <g fill="#fff" aria-label="5">
  <path d="m45.31 68.581-3.4424-0.92774 1.5137-17.7h15.479v4.1748h-11.841l-0.83008 9.668q2.2705-1.5381 4.7363-1.5381 4.1748 0 6.543 3.2471 2.3682 3.2227 2.3682 8.667 0 5.1025-2.417 8.4717-2.417 3.3447-7.251 3.3447-3.6133 0-6.2988-2.417-2.6855-2.4414-3.1006-7.4219h4.0771q0.70801 6.1279 5.3223 6.1279 2.5146 0 3.9307-2.1729 1.416-2.1729 1.416-5.8838 0-3.3447-1.4648-5.6152-1.4648-2.2949-4.1748-2.2949-1.8311 0-2.71 0.61035-0.85449 0.61035-1.8555 1.6602z"/>
 </g>
</svg>
