<?xml version="1.0" encoding="UTF-8"?>
<svg width="100mm" height="140mm" version="1.1" viewBox="0 0 100 140" xmlns="http://www.w3.org/2000/svg">
 <path transform="matrix(.97947 0 0 1 1.0263 -1.5875)" d="m50 124.12c-8.0865-17.14-24.996-33.906-33.525-53.083-6.6605-14.976-5.5603-29.498 1.9164-38.342 11.681-11.949 28.273-6.3777 31.609 11.066 3.3361-17.444 19.928-23.015 31.609-11.066 7.4767 8.8435 8.5769 23.365 1.9164 38.342-8.5288 19.177-25.439 35.943-33.525 53.083z" fill="#c00" fill-rule="evenodd" stroke="#c00" stroke-linecap="round" stroke-linejoin="round" stroke-width="2.0208" style="paint-order:stroke markers fill"/>
 <g fill="#fff" aria-label="J">
  <path d="m53.598 49.953h4.4678v25.269q-0.02441 5.2246-2.71 8.0078-2.6611 2.7588-6.8604 2.7588-4.1504 0-6.8604-2.5391-2.71-2.5391-2.71-7.7881h4.4922q0 3.3691 1.4404 4.9316 1.4648 1.5625 3.6377 1.5625 2.1973 0 3.6377-1.7822 1.4648-1.7822 1.4648-5.249z"/>
 </g>
</svg>
