<?xml version="1.0" encoding="UTF-8"?>
<svg width="100mm" height="140mm" version="1.1" viewBox="0 0 100 140" xmlns="http://www.w3.org/2000/svg">
 <path transform="matrix(.97947 0 0 1 1.0263 -1.5875)" d="m50 124.12c-8.0865-17.14-24.996-33.906-33.525-53.083-6.6605-14.976-5.5603-29.498 1.9164-38.342 11.681-11.949 28.273-6.3777 31.609 11.066 3.3361-17.444 19.928-23.015 31.609-11.066 7.4767 8.8435 8.5769 23.365 1.9164 38.342-8.5288 19.177-25.439 35.943-33.525 53.083z" fill="#c00" fill-rule="evenodd" stroke="#c00" stroke-linecap="round" stroke-linejoin="round" stroke-width="2.0208" style="paint-order:stroke markers fill"/>
 <g fill="#fff" aria-label="6">
  <path d="m59.47 73.903q0 5.0537-2.3682 8.5693t-7.0557 3.5156q-3.3203 0-5.4443-2.0264-2.124-2.0508-3.1494-5.1758-1.001-3.1494-1.001-6.4453v-2.124q0-3.7598 0.53711-7.373 0.53711-3.6133 2.0264-6.543 1.5137-2.9297 4.3457-4.6631 2.832-1.7334 7.7637-1.7334v3.833q-4.0283 0-6.1279 1.6113-2.0752 1.6113-3.0029 4.2236-0.92773 2.6123-1.123 5.5664 2.2949-2.9541 6.0303-2.9541 3.0273 0 4.9072 1.709 1.9043 1.709 2.7832 4.4189 0.87891 2.6855 0.87891 5.5908zm-14.673-1.416q0 4.7363 1.6357 7.251 1.6602 2.5146 3.6133 2.5146 2.4902 0 3.8086-2.2705 1.3428-2.2949 1.3428-5.8594 0-3.1738-1.2207-5.6885-1.2207-2.5146-3.7842-2.5146-1.8311 0-3.3203 1.3916-1.4648 1.3672-2.0752 3.3447z"/>
 </g>
</svg>
