<?xml version="1.0" encoding="UTF-8"?>
<svg width="100mm" height="140mm" version="1.1" viewBox="0 0 100 140" xmlns="http://www.w3.org/2000/svg">
 <path transform="matrix(.97947 0 0 1 1.0263 -1.5875)" d="m50 124.12c-8.0865-17.14-24.996-33.906-33.525-53.083-6.6605-14.976-5.5603-29.498 1.9164-38.342 11.681-11.949 28.273-6.3777 31.609 11.066 3.3361-17.444 19.928-23.015 31.609-11.066 7.4767 8.8435 8.5769 23.365 1.9164 38.342-8.5288 19.177-25.439 35.943-33.525 53.083z" fill="#c00" fill-rule="evenodd" stroke="#c00" stroke-linecap="round" stroke-linejoin="round" stroke-width="2.0208" style="paint-order:stroke markers fill"/>
 <g fill="#fff" aria-label="A">
  <path d="m36.203 85.5 11.45-35.547h3.8574l11.45 35.547h-4.5898l-2.7832-9.3018h-12.012l-2.7832 9.3018zm8.5449-13.159h9.668l-4.834-16.138z"/>
 </g>
</svg>
