<?xml version="1.0" encoding="UTF-8"?>
<svg width="100mm" height="140mm" version="1.1" viewBox="0 0 100 140" xmlns="http://www.w3.org/2000/svg">
 <path transform="matrix(.97947 0 0 1 1.0263 -1.5875)" d="m50 124.12c-8.0865-17.14-24.996-33.906-33.525-53.083-6.6605-14.976-5.5603-29.498 1.9164-38.342 11.681-11.949 28.273-6.3777 31.609 11.066 3.3361-17.444 19.928-23.015 31.609-11.066 7.4767 8.8435 8.5769 23.365 1.9164 38.342-8.5288 19.177-25.439 35.943-33.525 53.083z" fill="#c00" fill-rule="evenodd" stroke="#c00" stroke-linecap="round" stroke-linejoin="round" stroke-width="2.0208" style="paint-order:stroke markers fill"/>
 <g fill="#fff" aria-label="2">
  <path d="m59.958 81.789v3.7109h-19.873v-3.2471l9.8633-13.062q2.6367-3.54 3.4912-5.5664 0.87891-2.0508 0.87891-4.126 0-2.6123-1.2695-4.4678-1.2451-1.8555-3.5156-1.8555-2.9785 0-4.3213 2.0264-1.3428 2.0264-1.3428 5.2002h-4.3213q0-4.4922 2.4902-7.7148 2.5146-3.2227 7.4951-3.2227 4.2969 0 6.6895 2.6123 2.417 2.6123 2.417 6.8848 0 3.125-1.5625 6.2744t-3.8574 6.1279l-7.959 10.425z"/>
 </g>
</svg>
