<?xml version="1.0" encoding="UTF-8"?>
<svg width="100mm" height="140mm" version="1.1" viewBox="0 0 100 140" xmlns="http://www.w3.org/2000/svg">
 <path transform="matrix(.97947 0 0 1 1.0263 -1.5875)" d="m50 124.12c-8.0865-17.14-24.996-33.906-33.525-53.083-6.6605-14.976-5.5603-29.498 1.9164-38.342 11.681-11.949 28.273-6.3777 31.609 11.066 3.3361-17.444 19.928-23.015 31.609-11.066 7.4767 8.8435 8.5769 23.365 1.9164 38.342-8.5288 19.177-25.439 35.943-33.525 53.083z" fill="#c00" fill-rule="evenodd" stroke="#c00" stroke-linecap="round" stroke-linejoin="round" stroke-width="2.0208" style="paint-order:stroke markers fill"/>
 <g fill="#fff" aria-label="10">
  <path d="m42.198 49.758v35.742h-4.3213v-30.103l-7.4707 3.3203v-4.0771l11.133-4.8828z"/>
  <path d="m69.833 70.314q0 8.7402-2.5879 12.207-2.5635 3.4668-6.9092 3.4668-4.248 0-6.8604-3.3691-2.6123-3.3936-2.6855-11.792v-5.9326q0-8.7158 2.6123-12.061 2.6367-3.3691 6.9092-3.3691 4.3213 0 6.8848 3.3203 2.5879 3.2959 2.6367 11.768zm-4.2969-6.1768q0-6.0059-1.3672-8.4961-1.3428-2.4902-3.8574-2.4902-2.4414 0-3.8086 2.417-1.3428 2.3926-1.3916 8.1299v7.3486q0 5.957 1.3672 8.5938 1.3916 2.6367 3.8574 2.6367 2.5146 0 3.833-2.5391 1.3184-2.5391 1.3672-8.252z"/>
 </g>
</svg>
