<?xml version="1.0" encoding="UTF-8"?>
<svg width="100mm" height="140mm" version="1.1" viewBox="0 0 100 140" xmlns="http://www.w3.org/2000/svg">
 <path transform="matrix(.98974 0 0 1.0102 .51316 -.69217)" d="m50 18.407c-13.697 24.053-37.846 34.672-37.983 57.526-0.0923 15.435 9.2383 26.192 19.844 26.169 7.211-0.0151 12.139-3.9507 15.074-8.5672 0.05757 7.2756-6.3481 18.821-11.388 24.272h28.906c-5.0401-5.4504-11.446-16.996-11.388-24.272 2.9357 4.6165 7.8632 8.5521 15.074 8.5672 10.606 0.0222 19.937-10.734 19.844-26.169-0.13667-22.854-24.286-33.473-37.983-57.526z" fill-rule="evenodd" stroke="#000" stroke-linecap="round" stroke-linejoin="round" stroke-width="2.0002" style="paint-order:stroke markers fill"/>
 <g fill="#fff" aria-label="2">
  <path d="m59.958 82.289v3.7109h-19.873v-3.2471l9.8633-13.062q2.6367-3.54 3.4912-5.5664 0.87891-2.0508 0.87891-4.126 0-2.6123-1.2695-4.4678-1.2451-1.8555-3.5156-1.8555-2.9785 0-4.3213 2.0264-1.3428 2.0264-1.3428 5.2002h-4.3213q0-4.4922 2.4902-7.7148 2.5146-3.2227 7.4951-3.2227 4.2969 0 6.6895 2.6123 2.417 2.6123 2.417 6.8848 0 3.125-1.5625 6.2744t-3.8574 6.1279l-7.959 10.425z"/>
 </g>
</svg>
