<?xml version="1.0" encoding="UTF-8"?>
<svg width="100mm" height="140mm" version="1.1" viewBox="0 0 100 140" xmlns="http://www.w3.org/2000/svg">
 <path transform="matrix(.98974 0 0 1.0102 .51316 -.69217)" d="m50 18.407c-13.697 24.053-37.846 34.672-37.983 57.526-0.0923 15.435 9.2383 26.192 19.844 26.169 7.211-0.0151 12.139-3.9507 15.074-8.5672 0.05757 7.2756-6.3481 18.821-11.388 24.272h28.906c-5.0401-5.4504-11.446-16.996-11.388-24.272 2.9357 4.6165 7.8632 8.5521 15.074 8.5672 10.606 0.0222 19.937-10.734 19.844-26.169-0.13667-22.854-24.286-33.473-37.983-57.526z" fill-rule="evenodd" stroke="#000" stroke-linecap="round" stroke-linejoin="round" stroke-width="2.0002" style="paint-order:stroke markers fill"/>
 <g fill="#fff" aria-label="J">
  <path d="m53.598 50.453h4.4678v25.269q-0.02441 5.2246-2.71 8.0078-2.6611 2.7588-6.8604 2.7588-4.1504 0-6.8604-2.5391-2.71-2.5391-2.71-7.7881h4.4922q0 3.3691 1.4404 4.9316 1.4648 1.5625 3.6377 1.5625 2.1973 0 3.6377-1.7822 1.4648-1.7822 1.4648-5.249z"/>
 </g>
</svg>
