<?xml version="1.0" encoding="UTF-8"?>
<svg width="100mm" height="140mm" version="1.1" viewBox="0 0 100 140" xmlns="http://www.w3.org/2000/svg">
 <path transform="matrix(.98974 0 0 1.0102 .51316 -.69217)" d="m50 18.407c-13.697 24.053-37.846 34.672-37.983 57.526-0.0923 15.435 9.2383 26.192 19.844 26.169 7.211-0.0151 12.139-3.9507 15.074-8.5672 0.05757 7.2756-6.3481 18.821-11.388 24.272h28.906c-5.0401-5.4504-11.446-16.996-11.388-24.272 2.9357 4.6165 7.8632 8.5521 15.074 8.5672 10.606 0.0222 19.937-10.734 19.844-26.169-0.13667-22.854-24.286-33.473-37.983-57.526z" fill-rule="evenodd" stroke="#000" stroke-linecap="round" stroke-linejoin="round" stroke-width="2.0002" style="paint-order:stroke markers fill"/>
 <g fill="#fff" aria-label="K">
  <path d="m57.663 86-9.9121-16.382-3.4912 4.1992v12.183h-4.4922v-35.547h4.4922v17.114l2.9297-3.833 9.5703-13.281h5.3711l-11.548 15.649 12.427 19.897z"/>
 </g>
</svg>
