<?xml version="1.0" encoding="UTF-8"?>
<svg width="100mm" height="140mm" version="1.1" viewBox="0 0 100 140" xmlns="http://www.w3.org/2000/svg">
 <path transform="matrix(.98974 0 0 1.0102 .51316 -.69217)" d="m50 18.407c-13.697 24.053-37.846 34.672-37.983 57.526-0.0923 15.435 9.2383 26.192 19.844 26.169 7.211-0.0151 12.139-3.9507 15.074-8.5672 0.05757 7.2756-6.3481 18.821-11.388 24.272h28.906c-5.0401-5.4504-11.446-16.996-11.388-24.272 2.9357 4.6165 7.8632 8.5521 15.074 8.5672 10.606 0.0222 19.937-10.734 19.844-26.169-0.13667-22.854-24.286-33.473-37.983-57.526z" fill-rule="evenodd" stroke="#000" stroke-linecap="round" stroke-linejoin="round" stroke-width="2.0002" style="paint-order:stroke markers fill"/>
 <g fill="#fff" aria-label="5">
  <path d="m45.31 69.081-3.4424-0.92774 1.5137-17.7h15.479v4.1748h-11.841l-0.83008 9.668q2.2705-1.5381 4.7363-1.5381 4.1748 0 6.543 3.2471 2.3682 3.2227 2.3682 8.667 0 5.1025-2.417 8.4717-2.417 3.3447-7.251 3.3447-3.6133 0-6.2988-2.417-2.6855-2.4414-3.1006-7.4219h4.0771q0.70801 6.1279 5.3223 6.1279 2.5146 0 3.9307-2.1729 1.416-2.1729 1.416-5.8838 0-3.3447-1.4648-5.6152-1.4648-2.2949-4.1748-2.2949-1.8311 0-2.71 0.61035-0.85449 0.61035-1.8555 1.6602z"/>
 </g>
</svg>
