<?xml version="1.0" encoding="UTF-8"?>
<svg width="100mm" height="140mm" version="1.1" viewBox="0 0 100 140" xmlns="http://www.w3.org/2000/svg">
 <path transform="matrix(.98974 0 0 1.0102 .51316 -.69217)" d="m50 18.407c-13.697 24.053-37.846 34.672-37.983 57.526-0.0923 15.435 9.2383 26.192 19.844 26.169 7.211-0.0151 12.139-3.9507 15.074-8.5672 0.05757 7.2756-6.3481 18.821-11.388 24.272h28.906c-5.0401-5.4504-11.446-16.996-11.388-24.272 2.9357 4.6165 7.8632 8.5521 15.074 8.5672 10.606 0.0222 19.937-10.734 19.844-26.169-0.13667-22.854-24.286-33.473-37.983-57.526z" fill-rule="evenodd" stroke="#000" stroke-linecap="round" stroke-linejoin="round" stroke-width="2.0002" style="paint-order:stroke markers fill"/>
 <g fill="#fff" aria-label="3">
  <path d="m45.627 69.716v-3.7109h2.7832q2.7832 0 4.126-1.7334 1.3672-1.7334 1.3672-4.3457 0-6.25-4.8096-6.25-2.2705 0-3.6377 1.6602-1.3428 1.6357-1.3428 4.4189h-4.2969q0-4.0771 2.5146-6.9336 2.5146-2.8564 6.7627-2.8564 4.0527 0 6.5918 2.5635 2.5391 2.5391 2.5391 7.4951 0 1.9775-1.0742 4.2236-1.0742 2.2217-3.5156 3.4912 3.0029 1.123 4.0039 3.54 1.001 2.3926 1.001 4.8096 0 4.9805-2.7588 7.6904-2.7344 2.71-6.8115 2.71-3.9795 0-6.7139-2.5635-2.7344-2.5879-2.7344-7.3242h4.3213q0 2.8076 1.3428 4.4922 1.3672 1.6846 3.7842 1.6846 2.3926 0 3.8086-1.6357 1.4404-1.6357 1.4404-4.9561 0-6.4697-6.1279-6.4697z"/>
 </g>
</svg>
