<?xml version="1.0" encoding="UTF-8"?>
<svg width="100mm" height="140mm" version="1.1" viewBox="0 0 100 140" xmlns="http://www.w3.org/2000/svg">
 <path class="UnoptimicedTransforms" transform="matrix(.98974 0 0 1.0102 .51316 -.69217)" d="m50 18.407c-13.697 24.053-37.846 34.672-37.983 57.526-0.0923 15.435 9.5056 26.192 20.112 26.169 7.211-0.0151 11.604-3.7543 14.54-8.3707 0.05757 7.2756-7.0165 18.429-11.589 23.552h29.841c-4.5723-5.123-11.646-16.276-11.589-23.552 2.9357 4.6165 7.3286 8.3556 14.54 8.3707 10.606 0.0222 20.204-10.734 20.112-26.169-0.13667-22.854-24.286-33.473-37.983-57.526z" fill-rule="evenodd" stroke="#000" stroke-linecap="round" stroke-linejoin="round" stroke-width="2.0002" style="paint-order:stroke markers fill"/>
 <g fill="#fff" aria-label="J">
  <path d="m53.598 50.453h4.4678v25.269q-0.02441 5.2246-2.71 8.0078-2.6611 2.7588-6.8604 2.7588-4.1504 0-6.8604-2.5391-2.71-2.5391-2.71-7.7881h4.4922q0 3.3691 1.4404 4.9316 1.4648 1.5625 3.6377 1.5625 2.1973 0 3.6377-1.7822 1.4648-1.7822 1.4648-5.249z"/>
 </g>
</svg>
