<?xml version="1.0" encoding="UTF-8"?>
<svg width="100mm" height="140mm" version="1.1" viewBox="0 0 100 140" xmlns="http://www.w3.org/2000/svg">
 <path transform="matrix(.98974 0 0 1.0102 .51316 -.69217)" d="m50 18.407c-13.697 24.053-37.846 34.672-37.983 57.526-0.0923 15.435 9.2383 26.192 19.844 26.169 7.211-0.0151 12.139-3.9507 15.074-8.5672 0.05757 7.2756-6.3481 18.821-11.388 24.272h28.906c-5.0401-5.4504-11.446-16.996-11.388-24.272 2.9357 4.6165 7.8632 8.5521 15.074 8.5672 10.606 0.0222 19.937-10.734 19.844-26.169-0.13667-22.854-24.286-33.473-37.983-57.526z" fill-rule="evenodd" stroke="#000" stroke-linecap="round" stroke-linejoin="round" stroke-width="2.0002" style="paint-order:stroke markers fill"/>
 <g fill="#fff" aria-label="9">
  <path d="m58.664 65.98q0 3.4668-0.43945 7.0068-0.43945 3.5156-1.8555 6.4941-1.416 2.9541-4.2725 4.7607-2.8564 1.8066-8.0811 1.8066l-0.02441-3.833q4.3945 0 6.4941-1.6113 2.124-1.6113 2.9297-4.2236 0.80566-2.6367 0.92774-5.6152-2.5879 3.3447-6.0791 3.3447-3.0273 0-4.9072-1.7578-1.8555-1.7578-2.7344-4.4678-0.85449-2.7344-0.85449-5.6396 0-5.0781 2.3193-8.667 2.3438-3.6133 7.0312-3.6133 3.4912 0 5.5908 2.0996 2.0996 2.0996 3.0273 5.3955 0.92773 3.2959 0.92773 6.8848zm-14.673-3.9795q0 3.1738 1.1963 5.7617 1.2207 2.5879 3.8086 2.5879 1.6357 0 3.125-1.3672 1.4893-1.3916 2.2461-3.418v-1.8311q0-4.8584-1.6602-7.4463-1.6357-2.5879-3.5889-2.5879-2.4658 0-3.8086 2.3926-1.3184 2.3682-1.3184 5.9082z"/>
 </g>
</svg>
