<?xml version="1.0" encoding="UTF-8"?>
<svg width="100mm" height="140mm" version="1.1" viewBox="0 0 100 140" xmlns="http://www.w3.org/2000/svg">
 <path class="UnoptimicedTransforms" transform="matrix(.98974 0 0 1.0102 .51316 -.69217)" d="m50 18.407c-13.697 24.053-37.846 34.672-37.983 57.526-0.0923 15.435 9.5056 26.192 20.112 26.169 7.211-0.0151 11.604-3.7543 14.54-8.3707 0.05757 7.2756-7.0165 18.429-11.589 23.552h29.841c-4.5723-5.123-11.646-16.276-11.589-23.552 2.9357 4.6165 7.3286 8.3556 14.54 8.3707 10.606 0.0222 20.204-10.734 20.112-26.169-0.13667-22.854-24.286-33.473-37.983-57.526z" fill-rule="evenodd" stroke="#000" stroke-linecap="round" stroke-linejoin="round" stroke-width="2.0002" style="paint-order:stroke markers fill"/>
 <g fill="#fff" aria-label="6">
  <path d="m59.47 74.403q0 5.0537-2.3682 8.5693t-7.0557 3.5156q-3.3203 0-5.4443-2.0264-2.124-2.0508-3.1494-5.1758-1.001-3.1494-1.001-6.4453v-2.124q0-3.7598 0.53711-7.373 0.53711-3.6133 2.0264-6.543 1.5137-2.9297 4.3457-4.6631 2.832-1.7334 7.7637-1.7334v3.833q-4.0283 0-6.1279 1.6113-2.0752 1.6113-3.0029 4.2236-0.92773 2.6123-1.123 5.5664 2.2949-2.9541 6.0303-2.9541 3.0273 0 4.9072 1.709 1.9043 1.709 2.7832 4.4189 0.87891 2.6855 0.87891 5.5908zm-14.673-1.416q0 4.7363 1.6357 7.251 1.6602 2.5146 3.6133 2.5146 2.4902 0 3.8086-2.2705 1.3428-2.2949 1.3428-5.8594 0-3.1738-1.2207-5.6885-1.2207-2.5146-3.7842-2.5146-1.8311 0-3.3203 1.3916-1.4648 1.3672-2.0752 3.3447z"/>
 </g>
</svg>
