<?xml version="1.0" encoding="UTF-8"?>
<svg width="100mm" height="140mm" version="1.1" viewBox="0 0 100 140" xmlns="http://www.w3.org/2000/svg">
 <path transform="matrix(.98974 0 0 1.0102 .51316 -.69217)" d="m50 18.407c-13.697 24.053-37.846 34.672-37.983 57.526-0.0923 15.435 9.2383 26.192 19.844 26.169 7.211-0.0151 12.139-3.9507 15.074-8.5672 0.05757 7.2756-6.3481 18.821-11.388 24.272h28.906c-5.0401-5.4504-11.446-16.996-11.388-24.272 2.9357 4.6165 7.8632 8.5521 15.074 8.5672 10.606 0.0222 19.937-10.734 19.844-26.169-0.13667-22.854-24.286-33.473-37.983-57.526z" fill-rule="evenodd" stroke="#000" stroke-linecap="round" stroke-linejoin="round" stroke-width="2.0002" style="paint-order:stroke markers fill"/>
 <g fill="#fff" aria-label="8">
  <path d="m59.055 76.381q0 4.8828-2.7344 7.4951-2.71 2.6123-6.7627 2.6123-4.0283 0-6.7627-2.6123-2.71-2.6367-2.71-7.4951 0-2.9785 1.3184-5.249 1.3428-2.2949 3.6377-3.4668-4.2969-2.4902-4.2969-7.959 0-4.6631 2.4902-7.2021 2.4902-2.5391 6.3477-2.5391t6.3232 2.5391q2.4902 2.5391 2.4902 7.2021 0 2.6367-1.1963 4.7363-1.1719 2.0752-3.1738 3.2471 2.2949 1.1719 3.6621 3.4668 1.3672 2.2705 1.3672 5.2246zm-4.9805-16.602q0-2.6611-1.2207-4.3701-1.2207-1.7334-3.2715-1.7334-2.0508 0-3.2959 1.6602-1.2207 1.6357-1.2207 4.4434 0 2.7588 1.2207 4.4189t3.2959 1.6602q2.0508 0 3.2715-1.6602t1.2207-4.4189zm0.68359 16.504q0-2.9785-1.4404-4.8584-1.416-1.8799-3.7842-1.8799-2.417 0-3.7842 1.8799-1.3672 1.8799-1.3672 4.8584 0 3.0762 1.3428 4.7852 1.3672 1.709 3.833 1.709 2.4902 0 3.833-1.709 1.3672-1.709 1.3672-4.7852z"/>
 </g>
</svg>
