<?xml version="1.0" encoding="UTF-8"?>
<svg width="100mm" height="140mm" version="1.1" viewBox="0 0 100 140" xmlns="http://www.w3.org/2000/svg">
 <path class="UnoptimicedTransforms" transform="matrix(.98974 0 0 1.0102 .51316 -.69217)" d="m50 18.407c-13.697 24.053-37.846 34.672-37.983 57.526-0.0923 15.435 9.5056 26.192 20.112 26.169 7.211-0.0151 11.604-3.7543 14.54-8.3707 0.05757 7.2756-7.0165 18.429-11.589 23.552h29.841c-4.5723-5.123-11.646-16.276-11.589-23.552 2.9357 4.6165 7.3286 8.3556 14.54 8.3707 10.606 0.0222 20.204-10.734 20.112-26.169-0.13667-22.854-24.286-33.473-37.983-57.526z" fill-rule="evenodd" stroke="#000" stroke-linecap="round" stroke-linejoin="round" stroke-width="2.0002" style="paint-order:stroke markers fill"/>
 <g fill="#fff" aria-label="5">
  <path d="m45.31 69.081-3.4424-0.92774 1.5137-17.7h15.479v4.1748h-11.841l-0.83008 9.668q2.2705-1.5381 4.7363-1.5381 4.1748 0 6.543 3.2471 2.3682 3.2227 2.3682 8.667 0 5.1025-2.417 8.4717-2.417 3.3447-7.251 3.3447-3.6133 0-6.2988-2.417-2.6855-2.4414-3.1006-7.4219h4.0771q0.70801 6.1279 5.3223 6.1279 2.5146 0 3.9307-2.1729 1.416-2.1729 1.416-5.8838 0-3.3447-1.4648-5.6152-1.4648-2.2949-4.1748-2.2949-1.8311 0-2.71 0.61035-0.85449 0.61035-1.8555 1.6602z"/>
 </g>
</svg>
