<?xml version="1.0" encoding="UTF-8"?>
<svg width="100mm" height="140mm" version="1.1" viewBox="0 0 100 140" xmlns="http://www.w3.org/2000/svg">
 <path transform="matrix(.98974 0 0 1.0102 .51316 -.69217)" d="m50 18.407c-13.697 24.053-37.846 34.672-37.983 57.526-0.0923 15.435 9.2383 26.192 19.844 26.169 7.211-0.0151 12.139-3.9507 15.074-8.5672 0.05757 7.2756-6.3481 18.821-11.388 24.272h28.906c-5.0401-5.4504-11.446-16.996-11.388-24.272 2.9357 4.6165 7.8632 8.5521 15.074 8.5672 10.606 0.0222 19.937-10.734 19.844-26.169-0.13667-22.854-24.286-33.473-37.983-57.526z" fill-rule="evenodd" stroke="#000" stroke-linecap="round" stroke-linejoin="round" stroke-width="2.0002" style="paint-order:stroke markers fill"/>
 <g fill="#fff" aria-label="Q">
  <path d="m61.789 89.076-3.0518 2.9297-6.3721-5.835q-1.416 0.31738-3.0029 0.31738-5.249 0-8.5693-3.7109-3.2959-3.7109-3.3936-11.035v-6.5918q0-7.5439 3.2959-11.353 3.2959-3.833 8.6426-3.833 5.4688 0 8.667 3.7598 3.2227 3.7354 3.2959 11.084v6.4941q0 9.2041-4.8096 12.964zm-4.9316-23.975q0-5.8594-1.9531-8.4961-1.9287-2.6367-5.5664-2.6367-3.4424 0-5.4688 2.6367-2.002 2.6367-2.002 8.4961v6.2012q0 5.9082 2.0264 8.5693 2.0508 2.6367 5.4688 2.6367 3.6621 0 5.5664-2.6123 1.9043-2.6123 1.9287-8.4473z"/>
 </g>
</svg>
