<?xml version="1.0" encoding="UTF-8"?>
<svg width="100mm" height="140mm" version="1.1" viewBox="0 0 100 140" xmlns="http://www.w3.org/2000/svg">
 <path class="UnoptimicedTransforms" transform="matrix(.98974 0 0 1.0102 .51316 -.69217)" d="m50 18.407c-13.697 24.053-37.846 34.672-37.983 57.526-0.0923 15.435 9.5056 26.192 20.112 26.169 7.211-0.0151 11.604-3.7543 14.54-8.3707 0.05757 7.2756-7.0165 18.429-11.589 23.552h29.841c-4.5723-5.123-11.646-16.276-11.589-23.552 2.9357 4.6165 7.3286 8.3556 14.54 8.3707 10.606 0.0222 20.204-10.734 20.112-26.169-0.13667-22.854-24.286-33.473-37.983-57.526z" fill-rule="evenodd" stroke="#000" stroke-linecap="round" stroke-linejoin="round" stroke-width="2.0002" style="paint-order:stroke markers fill"/>
 <g fill="#fff" aria-label="10">
  <path d="m42.198 50.258v35.742h-4.3213v-30.103l-7.4707 3.3203v-4.0771l11.133-4.8828z"/>
  <path d="m69.833 70.814q0 8.7402-2.5879 12.207-2.5635 3.4668-6.9092 3.4668-4.248 0-6.8604-3.3691-2.6123-3.3936-2.6855-11.792v-5.9326q0-8.7158 2.6123-12.061 2.6367-3.3691 6.9092-3.3691 4.3213 0 6.8848 3.3203 2.5879 3.2959 2.6367 11.768zm-4.2969-6.1768q0-6.0059-1.3672-8.4961-1.3428-2.4902-3.8574-2.4902-2.4414 0-3.8086 2.417-1.3428 2.3926-1.3916 8.1299v7.3486q0 5.957 1.3672 8.5938 1.3916 2.6367 3.8574 2.6367 2.5146 0 3.833-2.5391 1.3184-2.5391 1.3672-8.252z"/>
 </g>
</svg>
