<?xml version="1.0" encoding="UTF-8"?>
<svg width="93.58mm" height="128.8mm" version="1.1" viewBox="0 0 93.58 128.8" xmlns="http://www.w3.org/2000/svg">
  <g transform="translate(-84.06 -121.8)">
    <path d="m129.4 242.1-3.906 6.489c3.341 2.054 6.781 2.088 10.81 3e-3l-3.757-6.397" fill="#702a92" stroke="#000"/>
    <path d="m177.1 176.9c0 34.08-30.24 65.37-45.74 65.37-15.5 1e-5 -46.52-30.04-46.84-65.37-0.2684-30.15 20.72-54.59 46.29-54.59s46.29 24.44 46.29 54.59z" fill="#702a92"/>
    <ellipse cx="130.9" cy="176.9" rx="46.29" ry="54.59" fill="#a44bc9"/>
    <ellipse transform="matrix(.8223 -.569 .5326 .8463 0 0)" cx="20.74" cy="181.1" rx="17.7" ry="11.51" fill="#dab7e9"/>
    <path d="m177.1 176.9c0 34.08-30.24 65.37-45.74 65.37-15.5 1e-5 -46.52-30.04-46.84-65.37-0.2684-30.15 20.72-54.59 46.29-54.59s46.29 24.44 46.29 54.59z" fill="none" stroke="#000"/>
  </g>
</svg>
